<svg width="132" height="34" viewBox="0 0 132 34" fill="none" xmlns="http://www.w3.org/2000/svg">
<path d="M8.54 24.4564C8.81614 24.4564 9.04 24.6803 9.04 24.9564V27.7964C9.04 28.0726 8.81614 28.2964 8.54 28.2964H0.499999C0.223857 28.2964 0 28.0726 0 27.7964V14.3084C0 14.0323 0.223858 13.8084 0.5 13.8084H3.46C3.73614 13.8084 3.96 14.0323 3.96 14.3084V23.9564C3.96 24.2326 4.18386 24.4564 4.46 24.4564H8.54Z" fill="white"></path>
<path d="M11.7209 21.8958C11.7209 21.6196 11.9448 21.3958 12.2209 21.3958H14.9409C15.2171 21.3958 15.4409 21.6196 15.4409 21.8958V27.7964C15.4409 28.0726 15.2171 28.2964 14.9409 28.2964H12.2209C11.9448 28.2964 11.7209 28.0726 11.7209 27.7964V21.8958Z" fill="white"></path>
<path d="M23.4309 29.3924C23.6353 29.3924 23.8337 29.5193 24.008 29.6262C24.2071 29.7482 24.5627 29.8724 25.1854 29.8724C25.5214 29.8724 25.8334 29.8084 26.1214 29.6804C26.4094 29.5524 26.6574 29.3764 26.8654 29.1524C27.0894 28.9284 27.2574 28.6644 27.3694 28.3604C27.4974 28.0724 27.5614 27.7604 27.5614 27.4244V27.2164C27.0974 27.6324 26.5614 27.9524 25.9534 28.1764C25.3614 28.3844 24.6974 28.4884 23.9614 28.4884C23.0494 28.4884 22.2174 28.3364 21.4654 28.0324C20.7134 27.7284 20.0734 27.3124 19.5454 26.7844C19.0174 26.2404 18.6094 25.5924 18.3214 24.8404C18.0334 24.0724 17.8894 23.2324 17.8894 22.3204C17.8894 21.3924 18.0334 20.5524 18.3214 19.8004C18.6094 19.0324 19.0174 18.3764 19.5454 17.8324C20.0734 17.2884 20.7134 16.8644 21.4654 16.5604C22.2174 16.2564 23.0494 16.1044 23.9614 16.1044C24.6814 16.1044 25.3454 16.2404 25.9534 16.5124C26.5614 16.7684 27.0974 17.1284 27.5614 17.5924V16.7964C27.5614 16.5203 27.7852 16.2964 28.0614 16.2964H30.7814C31.0575 16.2964 31.2814 16.5203 31.2814 16.7964V27.4244C31.2814 28.2404 31.1134 29.0164 30.7774 29.7524C30.4574 30.4884 30.0174 31.1364 29.4574 31.6964C28.8814 32.2724 28.2254 32.7124 27.4894 33.0164C26.7694 33.3204 26.0014 33.4724 25.1854 33.4724C24.3694 33.4724 23.5934 33.3204 22.8574 33.0164C22.1374 32.7124 21.4894 32.2724 20.9134 31.6964C20.6894 31.4724 20.4814 31.2244 20.2894 30.9524C20.1947 30.8184 20.0127 30.4375 19.8523 30.0857C19.7035 29.7591 19.9447 29.3924 20.3036 29.3924H23.4309ZM22.4974 24.6964C22.8174 25.0164 23.1454 25.2644 23.4814 25.4404C23.8174 25.6004 24.2174 25.6804 24.6814 25.6804C25.6094 25.6804 26.4094 25.3444 27.0814 24.6724C27.257 24.4968 27.3984 24.3155 27.5056 24.1284C27.5442 24.0611 27.5614 23.984 27.5614 23.9064V20.6624C27.5614 20.5848 27.5442 20.5078 27.5056 20.4404C27.3984 20.2534 27.257 20.072 27.0814 19.8964C26.7614 19.5764 26.3934 19.3364 25.9774 19.1764C25.5614 19.0004 25.1294 18.9124 24.6814 18.9124C24.2174 18.9124 23.8174 19.0004 23.4814 19.1764C23.1454 19.3364 22.8174 19.5764 22.4974 19.8964C22.1774 20.2164 21.9454 20.5844 21.8014 21.0004C21.6734 21.4164 21.6094 21.8564 21.6094 22.3204C21.6094 22.7684 21.6734 23.2004 21.8014 23.6164C21.9454 24.0164 22.1774 24.3764 22.4974 24.6964Z" fill="white"></path>
<path d="M46.5973 27.7964C46.5973 28.0726 46.3735 28.2964 46.0973 28.2964H43.3773C43.1012 28.2964 42.8773 28.0726 42.8773 27.7964V22.2724C42.8773 21.8244 42.8453 21.4004 42.7813 21.0004C42.7333 20.6004 42.5493 20.2404 42.2293 19.9204C41.5573 19.2484 40.7493 18.9124 39.8053 18.9124C38.8773 18.9124 38.0773 19.2484 37.4053 19.9204C37.2297 20.096 37.0883 20.2774 36.9811 20.4644C36.9425 20.5318 36.9253 20.6088 36.9253 20.6864V27.7964C36.9253 28.0726 36.7015 28.2964 36.4253 28.2964H33.7053C33.4292 28.2964 33.2053 28.0726 33.2053 27.7964V13.9724C33.2053 13.6963 33.4292 13.4724 33.7053 13.4724H36.4253C36.7015 13.4724 36.9253 13.6963 36.9253 13.9724V17.3764C37.3893 16.9764 37.9173 16.6644 38.5093 16.4404C39.1013 16.2164 39.7733 16.1044 40.5253 16.1044C41.4373 16.1044 42.2693 16.2564 43.0213 16.5604C43.7733 16.8644 44.4133 17.2884 44.9413 17.8324C45.4693 18.3604 45.8773 19.0084 46.1653 19.7764C46.4533 20.5284 46.5973 21.3604 46.5973 22.2724V27.7964Z" fill="white"></path>
<path d="M55.7396 19.7004C55.7396 19.9766 55.5158 20.2004 55.2396 20.2004H52.9076V27.7964C52.9076 28.0726 52.6838 28.2964 52.4076 28.2964H49.6876C49.4115 28.2964 49.1876 28.0726 49.1876 27.7964V20.2004H48.5356C48.2595 20.2004 48.0356 19.9766 48.0356 19.7004V17.5618C48.0356 17.3959 48.118 17.2407 48.2555 17.1477L52.1275 14.5282C52.4595 14.3036 52.9076 14.5415 52.9076 14.9423V17.2964H55.2396C55.5158 17.2964 55.7396 17.5203 55.7396 17.7964V19.7004Z" fill="white"></path>
<path d="M75.883 13.8084C76.1591 13.8084 76.383 14.0323 76.383 14.3084V27.7964C76.383 28.0726 76.1591 28.2964 75.883 28.2964H72.923C72.6469 28.2964 72.423 28.0726 72.423 27.7964V23.8804H67.335V27.7964C67.335 28.0726 67.1111 28.2964 66.835 28.2964H63.875C63.5989 28.2964 63.375 28.0726 63.375 27.7964V14.3084C63.375 14.0323 63.5989 13.8084 63.875 13.8084H66.835C67.1111 13.8084 67.335 14.0323 67.335 14.3084V20.0404H72.423V14.3084C72.423 14.0323 72.6469 13.8084 72.923 13.8084H75.883Z" fill="white"></path>
<path d="M91.6134 22.3204C91.6134 23.3604 91.4214 24.2644 91.0374 25.0324C90.6534 25.8004 90.1414 26.4404 89.5014 26.9524C88.8614 27.4644 88.1334 27.8484 87.3174 28.1044C86.5174 28.3604 85.6854 28.4884 84.8214 28.4884C83.9734 28.4884 83.1414 28.3604 82.3254 28.1044C81.5094 27.8484 80.7814 27.4644 80.1414 26.9524C79.5174 26.4404 79.0134 25.8004 78.6294 25.0324C78.2454 24.2644 78.0534 23.3604 78.0534 22.3204C78.0534 21.2804 78.2454 20.3764 78.6294 19.6084C79.0134 18.8244 79.5174 18.1764 80.1414 17.6644C80.7814 17.1364 81.5094 16.7444 82.3254 16.4884C83.1414 16.2324 83.9734 16.1044 84.8214 16.1044C85.6854 16.1044 86.5174 16.2324 87.3174 16.4884C88.1334 16.7444 88.8614 17.1364 89.5014 17.6644C90.1414 18.1764 90.6534 18.8244 91.0374 19.6084C91.4214 20.3764 91.6134 21.2804 91.6134 22.3204ZM87.0054 24.6964C87.3254 24.3764 87.5494 24.0164 87.6774 23.6164C87.8214 23.2004 87.8934 22.7684 87.8934 22.3204C87.8934 21.8564 87.8214 21.4164 87.6774 21.0004C87.5494 20.5844 87.3254 20.2164 87.0054 19.8964C86.6854 19.5764 86.3254 19.3444 85.9254 19.2004C85.5254 19.0564 85.1574 18.9844 84.8214 18.9844C84.5014 18.9844 84.1414 19.0564 83.7414 19.2004C83.3414 19.3444 82.9814 19.5764 82.6614 19.8964C82.3414 20.2164 82.1094 20.5844 81.9654 21.0004C81.8374 21.4164 81.7734 21.8564 81.7734 22.3204C81.7734 22.7684 81.8374 23.1924 81.9654 23.5924C82.1094 23.9924 82.3414 24.3524 82.6614 24.6724C82.9814 24.9924 83.3414 25.2324 83.7414 25.3924C84.1414 25.5364 84.5014 25.6084 84.8214 25.6084C85.1574 25.6084 85.5254 25.5364 85.9254 25.3924C86.3254 25.2484 86.6854 25.0164 87.0054 24.6964Z" fill="white"></path>
<path d="M92.8247 16.7964C92.8247 16.5203 93.0485 16.2964 93.3247 16.2964H96.0447C96.3208 16.2964 96.5447 16.5203 96.5447 16.7964V22.3204C96.5447 22.7684 96.5687 23.1924 96.6167 23.5924C96.6807 23.9924 96.8727 24.3524 97.1927 24.6724C97.8647 25.3444 98.6727 25.6804 99.6167 25.6804C100.545 25.6804 101.345 25.3444 102.017 24.6724C102.192 24.4968 102.334 24.3155 102.441 24.1284C102.479 24.0611 102.497 23.984 102.497 23.9064V16.7964C102.497 16.5203 102.721 16.2964 102.997 16.2964H105.717C105.993 16.2964 106.217 16.5203 106.217 16.7964V27.7964C106.217 28.0726 105.993 28.2964 105.717 28.2964H102.997C102.721 28.2964 102.497 28.0726 102.497 27.7964V27.2164C102.033 27.6324 101.497 27.9524 100.889 28.1764C100.297 28.3844 99.6327 28.4884 98.8967 28.4884C97.9847 28.4884 97.1527 28.3364 96.4007 28.0324C95.6487 27.7284 95.0087 27.3124 94.4807 26.7844C93.9527 26.2404 93.5447 25.5924 93.2567 24.8404C92.9687 24.0724 92.8247 23.2324 92.8247 22.3204V16.7964Z" fill="white"></path>
<path d="M112.815 16.1044C113.615 16.1044 114.391 16.2404 115.143 16.5124C115.725 16.7187 116.221 16.971 116.628 17.2694C116.841 17.4255 116.86 17.7275 116.692 17.9316L115.279 19.6476C115.109 19.8539 114.806 19.8893 114.573 19.7584C114.555 19.7484 114.537 19.7384 114.519 19.7284C114.343 19.6324 114.151 19.5444 113.943 19.4644C113.751 19.3684 113.551 19.2964 113.343 19.2484C113.151 19.2004 112.975 19.1764 112.815 19.1764C112.415 19.1764 112.143 19.2324 111.999 19.3444C111.855 19.4564 111.783 19.5764 111.783 19.7044C111.783 19.8324 111.887 19.9604 112.095 20.0884C112.319 20.2004 112.591 20.3204 112.911 20.4484L114.375 21.0724C114.951 21.3124 115.415 21.5764 115.767 21.8644C116.135 22.1524 116.415 22.4644 116.607 22.8004C116.815 23.1204 116.951 23.4644 117.015 23.8324C117.079 24.2004 117.111 24.5844 117.111 24.9844C117.111 25.6084 116.975 26.1444 116.703 26.5924C116.431 27.0404 116.079 27.4084 115.647 27.6964C115.231 27.9684 114.751 28.1684 114.207 28.2964C113.679 28.4244 113.151 28.4884 112.623 28.4884C111.583 28.4884 110.647 28.3204 109.815 27.9844C109.17 27.706 108.634 27.4026 108.209 27.0742C108.02 26.928 107.986 26.6619 108.113 26.4588L109.171 24.7587C109.333 24.4987 109.699 24.4335 109.972 24.5711C109.976 24.5729 109.979 24.5746 109.983 24.5764C110.207 24.6724 110.463 24.7684 110.751 24.8644C111.055 24.9444 111.367 25.0164 111.687 25.0804C112.007 25.1444 112.319 25.1764 112.623 25.1764C112.751 25.1764 112.863 25.1524 112.959 25.1044C113.039 25.0724 113.119 25.0244 113.199 24.9604C113.279 24.8964 113.319 24.8004 113.319 24.6724C113.319 24.5124 113.255 24.3924 113.127 24.3124C112.999 24.2164 112.751 24.0884 112.383 23.9284L110.919 23.3044C109.959 22.8884 109.255 22.3844 108.807 21.7924C108.359 21.2004 108.135 20.5044 108.135 19.7044C108.135 19.0164 108.271 18.4404 108.543 17.9764C108.831 17.5124 109.199 17.1444 109.647 16.8724C110.095 16.6004 110.591 16.4084 111.135 16.2964C111.695 16.1684 112.255 16.1044 112.815 16.1044Z" fill="white"></path>
<path d="M131.879 23.5497C131.879 23.8253 131.656 24.049 131.38 24.0497L122.495 24.0724C122.767 24.5364 123.119 24.9204 123.551 25.2244C123.999 25.5284 124.511 25.6804 125.087 25.6804C125.571 25.6804 126.664 25.6017 127.187 25.4442C127.243 25.4273 127.301 25.4164 127.36 25.4164C128.513 25.4164 129.929 25.4164 130.862 25.4164C131.165 25.4164 131.343 25.673 131.162 25.9163C131.002 26.1304 130.751 26.4149 130.354 26.7731C129.333 27.6964 127.473 28.4884 125.675 28.4884C124.827 28.4884 123.407 28.3604 122.591 28.1044C121.775 27.8484 121.047 27.4644 120.407 26.9524C119.783 26.4404 119.279 25.8004 118.895 25.0324C118.511 24.2644 118.319 23.3604 118.319 22.3204C118.319 21.2804 118.511 20.3764 118.895 19.6084C119.279 18.8244 119.783 18.1764 120.407 17.6644C121.047 17.1364 121.775 16.7444 122.591 16.4884C123.407 16.2324 124.239 16.1044 125.087 16.1044C126.031 16.1044 126.911 16.2484 127.727 16.5364C128.543 16.8084 129.255 17.2164 129.863 17.7604C130.471 18.2884 130.951 18.9444 131.303 19.7284C131.655 20.4964 131.847 21.3684 131.879 22.3444V23.5497ZM122.927 19.8964C122.751 20.0724 122.599 20.2724 122.471 20.4964C122.359 20.7204 122.263 20.9524 122.183 21.1924H128.015C127.935 20.9524 127.831 20.7204 127.703 20.4964C127.591 20.2724 127.447 20.0724 127.271 19.8964C126.951 19.5764 126.623 19.3364 126.287 19.1764C125.951 19.0004 125.551 18.9124 125.087 18.9124C124.639 18.9124 124.247 19.0004 123.911 19.1764C123.575 19.3364 123.247 19.5764 122.927 19.8964Z" fill="white"></path>
<path d="M3.49072 9.17644C3.49072 8.71862 3.86185 8.34749 4.31967 8.34749H22.9623C23.4201 8.34749 23.7912 8.71862 23.7912 9.17644V11.0688C23.7912 11.5266 23.4201 11.8977 22.9623 11.8977H4.31967C3.86186 11.8977 3.49072 11.5266 3.49072 11.0688V9.17644Z" fill="white"></path>
<path d="M11.7133 11.0475C11.3896 10.7238 11.3896 10.1989 11.7133 9.8752L19.0454 2.5431C19.3691 2.21937 19.894 2.21937 20.2177 2.5431L21.5558 3.88119C21.8795 4.20492 21.8795 4.72978 21.5558 5.0535L14.2237 12.3856C13.9 12.7093 13.3751 12.7093 13.0514 12.3856L11.7133 11.0475Z" fill="white"></path>
<path d="M12.6056 10.5106C12.1477 10.5106 11.7766 10.1395 11.7766 9.68164V0.828947C11.7766 0.371132 12.1477 1.02729e-07 12.6056 8.27172e-08L14.4979 0C14.9557 -2.00117e-08 15.3269 0.371132 15.3269 0.828947L15.3269 9.68164C15.3269 10.1395 14.9557 10.5106 14.4979 10.5106H12.6056Z" fill="white"></path>
<path d="M14.2308 12.3798C13.907 12.7035 13.3822 12.7035 13.0585 12.3798L5.72636 5.04769C5.40264 4.72397 5.40264 4.19911 5.72636 3.87538L7.06445 2.53729C7.38818 2.21357 7.91304 2.21357 8.23676 2.53729L15.5689 9.86939C15.8926 10.1931 15.8926 10.718 15.5689 11.0417L14.2308 12.3798Z" fill="white"></path>
<path d="M11.7133 9.25362C11.3896 9.57734 11.3896 10.1022 11.7133 10.4259L18.1954 16.908C18.5191 17.2317 19.044 17.2317 19.3677 16.908L20.7058 15.5699C21.0295 15.2462 21.0295 14.7213 20.7058 14.3976L14.2237 7.91552C13.9 7.5918 13.3751 7.5918 13.0514 7.91552L11.7133 9.25362Z" fill="#48FF1A"></path>
<path d="M12.6055 9.79054C12.1477 9.79054 11.7766 10.1617 11.7766 10.6195L11.7766 19.4722C11.7766 19.93 12.1477 20.3011 12.6055 20.3011H14.4979C14.9557 20.3011 15.3268 19.93 15.3268 19.4722V10.6195C15.3268 10.1617 14.9557 9.79054 14.4979 9.79054H12.6055Z" fill="#48FF1A"></path>
<path d="M14.2307 7.92133C13.907 7.59761 13.3821 7.59761 13.0584 7.92133L6.58214 14.3976C6.25842 14.7213 6.25842 15.2462 6.58214 15.5699L7.92024 16.908C8.24396 17.2317 8.76882 17.2317 9.09255 16.908L15.5688 10.4317C15.8926 10.108 15.8926 9.58315 15.5688 9.25943L14.2307 7.92133Z" fill="#48FF1A"></path>
</svg>