<svg xmlns="http://www.w3.org/2000/svg" viewBox="0 0 128 128" role="img" aria-label="Surf">
  <defs>
    <linearGradient id="bg" x1="0" x2="1" y1="0" y2="1">
      <stop offset="0" stop-color="#1a5961"/>
      <stop offset="0.55" stop-color="#0e3a44"/>
      <stop offset="1" stop-color="#07171d"/>
    </linearGradient>
    <filter id="glow" x="-30%" y="-30%" width="160%" height="160%">
      <feGaussianBlur stdDeviation="3" result="blur"/>
      <feMerge>
        <feMergeNode in="blur"/>
        <feMergeNode in="SourceGraphic"/>
      </feMerge>
    </filter>
  </defs>
  <rect width="128" height="128" rx="22" fill="url(#bg)"/>
  <path d="M18 39c10 0 10 12 20 12s10-12 20-12 10 12 20 12 10-12 20-12 10 12 20 12" fill="none" stroke="#ecfbff" stroke-width="12" stroke-linecap="round" filter="url(#glow)"/>
  <path d="M18 64c10 0 10 12 20 12s10-12 20-12 10 12 20 12 10-12 20-12 10 12 20 12" fill="none" stroke="#ecfbff" stroke-width="12" stroke-linecap="round" opacity=".92"/>
  <path d="M18 89c10 0 10 12 20 12s10-12 20-12 10 12 20 12 10-12 20-12 10 12 20 12" fill="none" stroke="#ecfbff" stroke-width="12" stroke-linecap="round" opacity=".82"/>
</svg>
